<?xml version="1.0" encoding="utf-8"?>
<!-- Generator: Adobe Illustrator 24.0.2, SVG Export Plug-In . SVG Version: 6.00 Build 0)  -->
<svg version="1.1" id="Layer_1" xmlns="http://www.w3.org/2000/svg" xmlns:xlink="http://www.w3.org/1999/xlink" x="0px" y="0px"
	 viewBox="0 0 24 24" style="enable-background:new 0 0 24 24;" xml:space="preserve">
<style type="text/css">
	.st0{fill:#F44336;}
	.st1{fill:#00B060;}
	.st2{fill:#FFC107;}
	.st3{fill:#2196F3;}
	.st4{fill:url(#SVGID_1_);}
	.st5{fill:url(#SVGID_2_);}
	.st6{fill:url(#SVGID_3_);}
	.st7{fill:url(#XMLID_2_);}
	.st8{fill:#FFFFFF;}
</style>
<g>
	<path class="st0" d="M7,12c0-2.8,2.2-5,5-5c0.8,0,1.5,0.2,2.1,0.5h9C21.3,3.1,17,0,12,0C8.1,0,4.7,1.8,2.5,4.6L7,12.4
		C7,12.3,7,12.1,7,12z"/>
	<path class="st1" d="M12,17c-2.6,0-4.7-2-5-4.6L2.5,4.6C1,6.7,0,9.2,0,12c0,6.1,4.5,11.1,10.4,11.9l4.5-7.8C14,16.7,13,17,12,17z"
		/>
	<path class="st2" d="M14.1,7.5C15.8,8.3,17,10,17,12c0,1.7-0.9,3.2-2.2,4.1l-4.5,7.8c0.5,0.1,1.1,0.1,1.6,0.1c6.6,0,12-5.4,12-12
		c0-1.6-0.3-3.1-0.9-4.5H14.1z"/>
	<circle id="XMLID_1302_" class="st3" cx="12" cy="12" r="4"/>
	
		<linearGradient id="SVGID_1_" gradientUnits="userSpaceOnUse" x1="16.3875" y1="20.744" x2="20.8755" y2="16.256" gradientTransform="matrix(1 0 0 -1 0 26)">
		<stop  offset="0" style="stop-color:#000000;stop-opacity:0.1"/>
		<stop  offset="1" style="stop-color:#000000;stop-opacity:0"/>
	</linearGradient>
	<path class="st4" d="M16.5,9.8l6.7-2.3h-9C15.1,8,16,8.8,16.5,9.8z"/>
	
		<linearGradient id="SVGID_2_" gradientUnits="userSpaceOnUse" x1="1.8841" y1="20.7208" x2="8.0149" y2="14.59" gradientTransform="matrix(1 0 0 -1 0 26)">
		<stop  offset="0" style="stop-color:#000000;stop-opacity:0.1"/>
		<stop  offset="1" style="stop-color:#000000;stop-opacity:0"/>
	</linearGradient>
	<path class="st5" d="M7.8,9.3L2.5,4.6L7,12.4C6.9,11.3,7.2,10.2,7.8,9.3z"/>
	
		<linearGradient id="SVGID_3_" gradientUnits="userSpaceOnUse" x1="10.6389" y1="7.9494" x2="13.4027" y2="5.1856" gradientTransform="matrix(1 0 0 -1 0 26)">
		<stop  offset="0" style="stop-color:#000000;stop-opacity:0.1"/>
		<stop  offset="1" style="stop-color:#000000;stop-opacity:0"/>
	</linearGradient>
	<path class="st6" d="M11.7,17l-1.4,6.9l4.5-7.8C13.9,16.7,12.8,17,11.7,17z"/>
	
		<linearGradient id="XMLID_2_" gradientUnits="userSpaceOnUse" x1="1.1217" y1="19.0726" x2="22.8783" y2="8.9274" gradientTransform="matrix(1 0 0 -1 0 26)">
		<stop  offset="0" style="stop-color:#FFFFFF;stop-opacity:0.2"/>
		<stop  offset="1" style="stop-color:#FFFFFF;stop-opacity:0"/>
	</linearGradient>
	<circle id="XMLID_1304_" class="st7" cx="12" cy="12" r="12"/>
</g>
<g>
	<path class="st8" d="M12,8c2.2,0,4,1.8,4,4s-1.8,4-4,4s-4-1.8-4-4S9.8,8,12,8 M12,6.8c-2.8,0-5.2,2.3-5.2,5.2s2.3,5.2,5.2,5.2
		s5.2-2.3,5.2-5.2S14.8,6.8,12,6.8L12,6.8z"/>
</g>
</svg>
