<?xml version="1.0" ?><svg id="Layer_1" style="enable-background:new 0 0 512 512;" version="1.1" viewBox="0 0 512 512" xml:space="preserve" xmlns="http://www.w3.org/2000/svg" xmlns:xlink="http://www.w3.org/1999/xlink"><style type="text/css">
	.st0{fill:#25D366;}
	.st1{fill:#FFFFFF;}
	.st2{fill:#FF0000;}
	.st3{fill:#3D5A98;}
	.st4{fill:url(#SVGID_1_);}
	.st5{fill:url(#SVGID_2_);}
	.st6{fill:#55ADEE;}
	.st7{fill:#1E96C8;}
	.st8{fill:#A9C9DD;}
	.st9{fill:#C8DAEA;}
	.st10{fill:none;}
	.st11{fill:#4787F3;}
	.st12{fill:#DC483C;}
	.st13{fill:#FFCE43;}
	.st14{fill:#149F5C;}
	.st15{fill:#CE1E5B;}
	.st16{fill:#72C5CD;}
	.st17{fill:#DFA22F;}
	.st18{fill:#3CB187;}
	.st19{fill:#248C73;}
	.st20{fill:#392538;}
	.st21{fill:#BB242A;}
	.st22{fill:none;stroke:#3CB187;stroke-miterlimit:10;}
	.st23{fill:#009A57;}
	.st24{fill:#FCCD37;}
	.st25{fill:#2771F0;}
</style><g><linearGradient gradientUnits="userSpaceOnUse" id="SVGID_1_" x1="407.1325" x2="104.8675" y1="4.4733" y2="507.5267"><stop offset="0" style="stop-color:#4845A2"/><stop offset="4.536461e-02" style="stop-color:#5945A2"/><stop offset="0.1713" style="stop-color:#8444A1"/><stop offset="0.2698" style="stop-color:#9E44A1"/><stop offset="0.3282" style="stop-color:#A844A1"/><stop offset="0.3905" style="stop-color:#AB429A"/><stop offset="0.4788" style="stop-color:#B43C88"/><stop offset="0.4896" style="stop-color:#B53B85"/><stop offset="0.5577" style="stop-color:#BE3572"/><stop offset="0.6762" style="stop-color:#D22749"/><stop offset="0.7388" style="stop-color:#DF4F3E"/><stop offset="0.8559" style="stop-color:#F9A326"/><stop offset="1" style="stop-color:#F9DD26"/></linearGradient><path class="st4" d="M391.5,13H120.5C61.1,13,13,61.1,13,120.5v270.9C13,450.9,61.1,499,120.5,499h270.9   c59.4,0,107.5-48.1,107.5-107.5V120.5C499,61.1,450.9,13,391.5,13z"/><circle class="st1" cx="352.4" cy="160" r="21.2"/><g><path class="st1" d="M333.8,76H178.2C121.8,76,76,121.8,76,178.2v155.6C76,390.2,121.8,436,178.2,436h155.6    c56.4,0,102.2-45.9,102.2-102.2V178.2C436,121.8,390.2,76,333.8,76z M403.5,333.8c0,38.4-31.3,69.7-69.7,69.7H178.2    c-38.4,0-69.7-31.3-69.7-69.7V178.2c0-38.4,31.3-69.7,69.7-69.7h155.6c38.4,0,69.7,31.3,69.7,69.7V333.8z"/><path class="st1" d="M256,162.3c-51.7,0-93.7,42-93.7,93.7s42,93.7,93.7,93.7s93.7-42,93.7-93.7S307.7,162.3,256,162.3z     M256,317.2c-33.7,0-61.2-27.5-61.2-61.2s27.5-61.2,61.2-61.2s61.2,27.5,61.2,61.2S289.7,317.2,256,317.2z"/></g></g></svg>