<?xml version="1.0" ?><svg id="Capa_1" style="enable-background:new 0 0 128 128;" version="1.1" viewBox="0 0 128 128" xml:space="preserve" xmlns="http://www.w3.org/2000/svg" xmlns:xlink="http://www.w3.org/1999/xlink"><style type="text/css">
	.st0{fill:#21A365;}
	.st1{fill:#107C41;}
	.st2{fill:#185B37;}
	.st3{fill:#33C481;}
	.st4{fill:#17864C;}
	.st5{fill:#FFFFFF;}
	.st6{fill:#036C70;}
	.st7{fill:#1A9BA1;}
	.st8{fill:#37C6D0;}
	.st9{fill:#04878B;}
	.st10{fill:#4F59CA;}
	.st11{fill:#7B82EA;}
	.st12{fill:#4C53BB;}
	.st13{fill:#0F78D5;}
	.st14{fill:#29A7EB;}
	.st15{fill:#0358A8;}
	.st16{fill:#0F79D6;}
	.st17{fill:#038387;}
	.st18{fill:#048A8E;}
	.st19{fill:#C8421D;}
	.st20{fill:#FF8F6A;}
	.st21{fill:#ED6B47;}
	.st22{fill:#891323;}
	.st23{fill:#AF2131;}
	.st24{fill:#C94E60;}
	.st25{fill:#E08195;}
	.st26{fill:#B42839;}
	.st27{fill:#0464B8;}
	.st28{fill:#0377D4;}
	.st29{fill:#4FD8FF;}
	.st30{fill:#1681D7;}
	.st31{fill:#0178D4;}
	.st32{fill:#042071;}
	.st33{fill:#168FDE;}
	.st34{fill:#CA64EA;}
	.st35{fill:#7E1FAF;}
	.st36{fill:#AE4BD5;}
	.st37{fill:#9332BF;}
	.st38{fill:#7719AA;}
	.st39{fill:#0078D4;}
	.st40{fill:#1490DF;}
	.st41{fill:#0364B8;}
	.st42{fill:#28A8EA;}
	.st43{fill:#41A5ED;}
	.st44{fill:#2C7BD5;}
	.st45{fill:#195ABE;}
	.st46{fill:#103E91;}
	.st47{fill:#2166C3;}
	.st48{opacity:0.2;}
</style><path class="st34" d="M122.1,123.7H36.1c-3.2,0-5.9-2.6-5.9-5.9v-107c0-3.2,2.6-5.9,5.9-5.9h86.1c3.2,0,5.9,2.6,5.9,5.9v107  C128,121.1,125.4,123.7,122.1,123.7z"/><path class="st35" d="M59.5,96.5h-53c-3.5,0-6.4-2.9-6.4-6.4V37.9c0-3.5,2.9-6.4,6.4-6.4h53c3.5,0,6.4,2.9,6.4,6.4v52.2  C65.9,93.6,63.1,96.5,59.5,96.5z"/><g><path class="st5" d="M19.3,82.4V46.5h7.6l9.4,15.4c2.4,4,4.5,8.1,6.2,12l0.1-0.1C42.1,69.1,42,64.5,42,59V46.5h6.2v35.9h-6.9   l-9.5-15.8c-2.3-3.9-4.7-8.3-6.5-12.3L25,54.3c0.3,4.6,0.4,9.4,0.4,15.3v12.8H19.3z"/></g><rect class="st36" height="29.5" width="29.5" x="98.5" y="35.2"/><rect class="st37" height="29.5" width="29.5" x="98.5" y="64.8"/><path class="st38" d="M98.5,123.7h24.2c3-0.3,5.3-2.8,5.3-5.8V94.2H98.5V123.7z"/><path class="st48" d="M65.9,37.3c0,0.2,0,0.4,0,0.6v52.2c0,3.5-2.9,6.4-6.4,6.4H30.2v5.7h34.6c3.5,0,6.4-2.9,6.4-6.4V43.6  C71.2,40.4,68.9,37.7,65.9,37.3z"/></svg>