<?xml version="1.0" ?><!DOCTYPE svg  PUBLIC '-//W3C//DTD SVG 1.1//EN'  'http://www.w3.org/Graphics/SVG/1.1/DTD/svg11.dtd'><svg height="512px" style="enable-background:new 0 0 512 512;" version="1.1" viewBox="0 0 512 512" width="512px" xml:space="preserve" xmlns="http://www.w3.org/2000/svg" xmlns:xlink="http://www.w3.org/1999/xlink"><g id="_x38__x2C__Premier_Pro_x2C__Adobe"><g><rect height="510.578" style="fill:#EA77FF;" width="510.576" x="1.207" y="0.711"/><rect height="465.646" style="fill:#2A0034;" width="465.646" x="23.669" y="23.179"/><g><g><g><g id="XMLID_269_"><g><path d="M134.581,125.07c0-1.756,0.303-2.46,1.812-2.46         c11.48-0.349,34.142-0.703,57.103-0.703c59.216,0,81.805,34.455,82.103,75.205c0,55.853-41.62,77.024-86.032,77.024         c-8.457,0-16.616,0-18.731,0v79.8c0,2.105-0.605,2.809-2.114,2.809h-32.026c-1.511,0-2.114-0.703-2.114-2.459V125.07z          M170.835,240.065c2.416,0.354,6.948,0.704,19.64,0.704c23.867,0,46.829-6.807,46.829-41.935         c0-28.102-15.41-42.535-43.808-42.535c-11.783,0-20.245,0.354-22.661,0.703V240.065z" id="XMLID_270_" style="fill:#EA77FF;"/></g></g><g id="XMLID_265_"><g><path d="M382.799,179.972c1.262-0.068,2.848,0,4.113,0.354         c1.586,0.35,1.9,0.704,1.9,3.512v30.466c0,1.756-0.634,2.459-2.531,2.459c-18.044-0.703-26.572-1.27-39.458,4.006v132.146         c0,2.108-0.635,2.809-2.532,2.809h-33.228c-1.901,0-2.535-0.7-2.535-2.809v-118.38c0-15.457-0.635-27.125-1.582-38.716         c-0.314-1.407,0.316-2.111,1.901-2.111C308.848,193.707,339.454,182.307,382.799,179.972z" id="XMLID_267_" style="fill:#EA77FF;"/></g></g></g></g></g></g></g><g id="Layer_1"/></svg>