<?xml version="1.0" ?><!DOCTYPE svg  PUBLIC '-//W3C//DTD SVG 1.1//EN'  'http://www.w3.org/Graphics/SVG/1.1/DTD/svg11.dtd'><svg height="512px" style="enable-background:new 0 0 512 512;" version="1.1" viewBox="0 0 512 512" width="512px" xml:space="preserve" xmlns="http://www.w3.org/2000/svg" xmlns:xlink="http://www.w3.org/1999/xlink"><g id="_x32_3_x2C__Photoshop_x2C__Adobe"><g><rect height="510.578" style="fill:#4FC7EC;" width="510.576" x="1.207" y="0.711"/><rect height="465.646" style="fill:#242238;" width="465.646" x="23.669" y="23.179"/><g><g><g><g id="XMLID_239_"><g><path d="M125.389,124.051c0-1.76,0.302-2.459,1.811-2.459         c11.48-0.354,34.144-0.703,57.105-0.703c59.215,0,81.802,34.454,82.104,75.205c0,55.848-41.623,77.024-86.033,77.024         c-8.459,0-16.616,0-18.734,0v79.795c0,2.108-0.601,2.813-2.114,2.813h-32.026c-1.509,0-2.114-0.704-2.114-2.459V124.051z          M161.643,239.047c2.42,0.35,6.95,0.699,19.642,0.699c23.864,0,46.826-6.801,46.826-41.929         c0-28.102-15.406-42.536-43.805-42.536c-11.783,0-20.243,0.35-22.663,0.704V239.047z" id="XMLID_240_" style="fill:#4FC7EC;"/></g></g><g id="XMLID_236_"><g><path d="M341.819,212.791c-14.549,0-18.405,9.099-18.405,15.773         c0,8.433,3.856,12.997,26.123,23.537c30.577,14.753,43.64,27.752,43.64,53.04c0,35.129-22.859,55.115-55.517,55.115         c-15.733,0-35.585-1.5-48.054-10.632c-1.188-0.704-1.782-1.756-1.782-3.516v-32.316c0-1.756,1.189-2.459,2.08-1.756         c15.436,11.592,32.652,14.886,48.088,14.886c13.658,0,18.406-9.103,18.406-16.829c0-9.133-3.299-14.404-24.675-24.59         c-30.577-14.754-43.306-27.432-43.306-53.074c0-28.455,21.337-51.958,56.368-51.958c18.107,0,30.871,0.485,39.186,6.102         c1.482,1.406,1.781,2.459,1.781,4.568v28.804c0,2.105-1.188,3.163-2.672,2.105         C372.393,215.028,357.255,212.791,341.819,212.791z" id="XMLID_237_" style="fill:#4FC7EC;"/></g></g></g></g></g></g></g><g id="Layer_1"/></svg>