<?xml version="1.0" encoding="utf-8"?>
<!-- Generator: Adobe Illustrator 24.0.2, SVG Export Plug-In . SVG Version: 6.00 Build 0)  -->
<svg version="1.1" id="Layer_1" xmlns="http://www.w3.org/2000/svg" xmlns:xlink="http://www.w3.org/1999/xlink" x="0px" y="0px"
	 viewBox="0 0 128 128" style="enable-background:new 0 0 128 128;" xml:space="preserve">
<style type="text/css">
	.st0{fill:url(#SVGID_1_);}
	.st1{fill:#0E549B;}
	.st2{fill:#FFFFFF;}
</style>
<linearGradient id="SVGID_1_" gradientUnits="userSpaceOnUse" x1="15.8074" y1="41.1759" x2="124.1922" y2="97.1175" gradientTransform="matrix(1 0 0 -1 0 130)">
	<stop  offset="0" style="stop-color:#5A5C5E"/>
	<stop  offset="1" style="stop-color:#6E6E6E"/>
</linearGradient>
<path class="st0" d="M119.8,73.8l-4.6-4.9v-0.1c0.1-1.1,0.2-2.2,0.2-3.3c0-0.3,0-0.7,0-1c0-0.8,0-1.7,0-2.5c0-0.4,0-0.7-0.1-1
	c0-0.5,0-1.1-0.1-1.7l4.6-4.9c2.2-2.3,6.1-5.4,4.9-8.4l-5-12.2c-1.2-2.9-6.2-2.3-9.4-2.4l-6.7-0.2c-0.5-0.6-1-1.2-1.6-1.8
	c0,0,0-0.1-0.1-0.1c-0.2-0.2-0.3-0.4-0.5-0.6c-0.3-0.3-0.6-0.6-0.9-0.9c-0.4-0.4-0.8-0.9-1.3-1.3c-0.7-0.7-1.5-1.3-2.2-2l-0.1-0.1
	l-0.1-0.1l-0.2-6.7c-0.1-3.2,0.5-8.2-2.4-9.4L82.1,3.3c-2.9-1.2-6,2.7-8.4,4.9l-4.9,4.6c-1.1-0.1-2.2-0.2-3.3-0.2
	c-0.3,0-0.6,0-0.9,0c-0.7,0-1.4,0-2.1,0c-0.9,0-1.8,0.1-2.7,0.2c-0.1,0-0.2,0-0.3,0s-0.1,0-0.2,0l-4.9-4.6C52.1,6,49,2,46.1,3.3
	l-12.2,5c-2.9,1.2-2.3,6.2-2.4,9.4l-0.2,6.7c-0.1,0.1-0.1,0.1-0.2,0.2c-0.8,0.7-1.6,1.4-2.3,2.1c-0.3,0.3-0.6,0.6-0.8,0.8
	c-0.5,0.5-1.1,1.1-1.6,1.6c-0.3,0.3-0.5,0.6-0.8,0.9c-0.4,0.4-0.7,0.8-1,1.2l-6.7,0.2c-3.2,0.1-8.2-0.5-9.4,2.4L3.3,45.9
	c-1.2,2.9,2.7,6,4.9,8.3l4.6,4.9c-0.1,0.8-0.1,1.5-0.1,2.3c0,0.1,0,0.1,0,0.2c-0.1,1.3-0.1,2.6,0,3.9c0,0.6,0.1,1.1,0.1,1.7
	c0,0.5,0,0.9,0.1,1.4c0,0.1,0,0.1,0,0.1l-4.6,4.9C6,75.9,2,79,3.2,81.9l5,12.2c1.2,2.9,6.2,2.3,9.4,2.4l6.7,0.2
	c0,0.1,0.1,0.1,0.1,0.2c0.7,0.8,1.4,1.6,2.1,2.4c0.3,0.3,0.5,0.5,0.8,0.8c0.5,0.6,1.1,1.1,1.7,1.6c0.3,0.2,0.6,0.5,0.9,0.8
	c0.4,0.3,0.8,0.7,1.2,1l0.2,6.7c0.1,3.2-0.5,8.2,2.4,9.4l12.2,5.1c2.9,1.2,6-2.7,8.3-4.9l4.9-4.6c0.1,0,0.1,0,0.2,0
	c0.6,0.1,1.3,0.1,1.9,0.1c0.2,0,0.4,0,0.5,0c0.3,0,0.6,0,0.9,0c0.3,0,0.7,0,1,0c0.8,0,1.6,0,2.4,0c0.4,0,0.7,0,1.1-0.1
	c0.6,0,1.1-0.1,1.6-0.1l4.9,4.6c2.3,2.2,5.4,6.2,8.3,4.9l12.2-5c2.9-1.2,2.3-6.2,2.4-9.4l0.2-6.7c0.6-0.5,1.1-1,1.7-1.5
	c0.1-0.1,0.2-0.1,0.2-0.2c0.2-0.2,0.4-0.3,0.5-0.5c0.3-0.3,0.6-0.6,0.9-0.9c0.4-0.4,0.9-0.9,1.3-1.3c0.6-0.7,1.2-1.4,1.9-2.1
	c0.1-0.1,0.1-0.1,0.2-0.2c0.1,0,0.1-0.1,0.1-0.1l6.7-0.2c3.2-0.1,8.2,0.5,9.4-2.4l5.1-12.2C125.9,79.2,121.9,76.1,119.8,73.8z
	 M90.8,64c0,14.8-12,26.8-26.8,26.8S37.2,78.8,37.2,64s12-26.8,26.8-26.8S90.8,49.2,90.8,64z"/>
<circle class="st1" cx="64" cy="64" r="21.1"/>
<g>
	<path class="st2" d="M64,42.9c11.7,0,21.1,9.4,21.1,21.1c0,11.7-9.4,21.1-21.1,21.1S42.9,75.6,42.9,64C42.9,52.3,52.3,42.9,64,42.9
		 M64,34.9c-16,0-29.1,13.1-29.1,29.1S47.9,93.1,64,93.1S93.1,80,93.1,64S80,34.9,64,34.9L64,34.9z"/>
</g>
</svg>
