<?xml version="1.0" encoding="utf-8"?>
<!-- Generator: Adobe Illustrator 24.0.2, SVG Export Plug-In . SVG Version: 6.00 Build 0)  -->
<svg version="1.1" id="Layer_1" xmlns="http://www.w3.org/2000/svg" xmlns:xlink="http://www.w3.org/1999/xlink" x="0px" y="0px"
	 viewBox="0 0 512 512" style="enable-background:new 0 0 512 512;" xml:space="preserve">
<style type="text/css">
	.st0{fill:url(#SVGID_1_);}
	.st1{fill:url(#SVGID_2_);}
	.st2{fill:#24CAF5;}
	.st3{fill:#14A4F9;}
	.st4{fill:#F25022;}
	.st5{fill:#7FBA00;}
	.st6{fill:#00A4EF;}
	.st7{fill:#FFB900;}
</style>
<linearGradient id="SVGID_1_" gradientUnits="userSpaceOnUse" x1="-16.8438" y1="522.3438" x2="23.1562" y2="522.3438" gradientTransform="matrix(10.6667 0 0 -10.6667 222.3333 5705)">
	<stop  offset="0.176" style="stop-color:#CDCDCD"/>
	<stop  offset="0.244" style="stop-color:#B5B5B5"/>
	<stop  offset="0.274" style="stop-color:#B5B5B5"/>
	<stop  offset="0.308" style="stop-color:#BDBDBD"/>
	<stop  offset="0.349" style="stop-color:#CDCDCD"/>
	<stop  offset="0.638" style="stop-color:#CDCDCD"/>
	<stop  offset="0.668" style="stop-color:#C5C5C5"/>
	<stop  offset="0.702" style="stop-color:#B5B5B5"/>
	<stop  offset="0.76" style="stop-color:#B5B5B5"/>
	<stop  offset="0.78" style="stop-color:#BDBDBD"/>
	<stop  offset="0.803" style="stop-color:#CDCDCD"/>
</linearGradient>
<rect x="42.7" y="117.3" class="st0" width="426.7" height="32"/>
<linearGradient id="SVGID_2_" gradientUnits="userSpaceOnUse" x1="-15.4035" y1="538.441" x2="4.9687" y2="506.7815" gradientTransform="matrix(10.6667 0 0 -10.6667 222.3333 5705)">
	<stop  offset="0" style="stop-color:#0D62AF"/>
	<stop  offset="0.495" style="stop-color:#0D62AF"/>
	<stop  offset="0.946" style="stop-color:#233960"/>
	<stop  offset="1" style="stop-color:#233960"/>
</linearGradient>
<path class="st1" d="M448,437.3H64c-11.8,0-21.3-10.6-21.3-23.7V117.3h426.7v296.3C469.3,426.7,459.8,437.3,448,437.3z"/>
<polygon class="st2" points="170.7,10.7 138.7,42.7 138.7,149.3 170.7,149.3 "/>
<polygon class="st2" points="341.3,10.7 373.3,42.7 373.3,149.3 341.3,149.3 "/>
<rect x="170.7" y="10.7" class="st3" width="170.7" height="32"/>
<rect x="181.3" y="202.7" class="st4" width="69.3" height="69.3"/>
<rect x="261.3" y="202.7" class="st5" width="69.3" height="69.3"/>
<rect x="181.3" y="282.7" class="st6" width="69.3" height="69.3"/>
<rect x="261.3" y="282.7" class="st7" width="69.3" height="69.3"/>
</svg>
