<?xml version="1.0" encoding="utf-8"?>
<!-- Generator: Adobe Illustrator 24.0.2, SVG Export Plug-In . SVG Version: 6.00 Build 0)  -->
<svg version="1.1" id="Layer_1" xmlns="http://www.w3.org/2000/svg" xmlns:xlink="http://www.w3.org/1999/xlink" x="0px" y="0px"
	 viewBox="0 0 512 512" style="enable-background:new 0 0 512 512;" xml:space="preserve">
<style type="text/css">
	.st0{fill:#37379B;}
	.st1{clip-path:url(#SVGID_2_);}
	.st2{clip-path:url(#SVGID_4_);}
	.st3{fill:#FFFFFF;}
</style>
<path class="st0" d="M61.7,352.7l70.5,84.9L38.4,452c-5.5,0.9-10-4.5-8.1-9.8L61.7,352.7z"/>
<g>
	<g>
		<g>
			<g>
				<defs>
					<circle id="SVGID_1_" cx="263.8" cy="256" r="228.8"/>
				</defs>
				<use xlink:href="#SVGID_1_"  style="overflow:visible;fill:#37379B;"/>
				<clipPath id="SVGID_2_">
					<use xlink:href="#SVGID_1_"  style="overflow:visible;"/>
				</clipPath>
				<g class="st1">
					<g>
						<g>
							<g>
								<defs>
									<rect id="SVGID_3_" x="27.7" y="19.9" width="472.3" height="472.3"/>
								</defs>
								<use xlink:href="#SVGID_3_"  style="overflow:visible;fill:#37379B;"/>
								<clipPath id="SVGID_4_">
									<use xlink:href="#SVGID_3_"  style="overflow:visible;"/>
								</clipPath>
								<g class="st2">
								</g>
							</g>
						</g>
					</g>
				</g>
			</g>
		</g>
	</g>
</g>
<path class="st3" d="M323.8,320.3H154.6c-3.1,0-5.5-2.5-5.5-5.5V197.2c0-3.1,2.5-5.5,5.5-5.5h169.2c3.1,0,5.5,2.5,5.5,5.5v117.6
	C329.3,317.9,326.8,320.3,323.8,320.3z"/>
<path class="st3" d="M336.9,246.3l37.6-26.3c1.7-1.2,4,0,4,2.1v67.6c0,2-2.2,3.2-3.9,2.1l-37.7-24.5V246.3L336.9,246.3z"/>
</svg>
