<?xml version="1.0" encoding="utf-8"?>
<!-- Generator: Adobe Illustrator 23.0.1, SVG Export Plug-In . SVG Version: 6.00 Build 0)  -->
<svg version="1.1" id="Livello_1" xmlns="http://www.w3.org/2000/svg" xmlns:xlink="http://www.w3.org/1999/xlink" width="511.999" height="511.999"
	 viewBox="0 0 296.1 250" enable-background="new 0 0 296.1 250" xml:space="preserve">
<g>
	<linearGradient id="SVGID_1_" gradientUnits="userSpaceOnUse" x1="0" y1="130.6435" x2="296.141" y2="130.6435">
		<stop  offset="0" style="stop-color:#FFE897"/>
		<stop  offset="1" style="stop-color:#FBDA62"/>
	</linearGradient>
	<path fill="url(#SVGID_1_)" d="M0,222.8V50.4h118l25.7-25.5h139c7.5,0,13.5,6,13.5,13.5v184.4c0,7.5-6,13.5-13.5,13.5l-269.1,0
		C6,236.3,0,230.3,0,222.8z"/>
	<path fill="#FECF3D" d="M118.1,50.7H0V13.5C0,6,6,0,13.5,0h101.8c10.1,4.4,19.9,12.9,29.3,25.2l0.4,0.6L118.1,50.7z"/>
	<path fill="#0CCBE9" d="M18,19.4v12.8h14.1V19.4H18z"/>
	<polygon fill="#E0C974" points="123.2,236.3 97.8,236.3 97.9,174.8 99.4,174.5 	"/>
	<polygon fill="#DAB946" points="270.9,236.3 247.1,236.3 247.3,179.1 248.8,178.8 	"/>
	<path fill="#3CCEF4" d="M220.2,123.7l-143.6,0c-15.7,0-28.4,12.7-28.4,28.4l0,97.9h51.1v-75.5h96.3V250h53.1v-97.9
		C248.6,136.4,235.9,123.7,220.2,123.7z"/>
	<path fill="#FFFFFF" d="M80.6,19.4H31.5v12.8h49.1V19.4z"/>
</g>
</svg>
