<?xml version="1.0" encoding="utf-8"?>
<!-- Generator: Adobe Illustrator 24.0.2, SVG Export Plug-In . SVG Version: 6.00 Build 0)  -->
<svg version="1.1" id="Layer_1" xmlns="http://www.w3.org/2000/svg" xmlns:xlink="http://www.w3.org/1999/xlink" x="0px" y="0px"
	 viewBox="0 0 560 560" style="enable-background:new 0 0 560 560;" xml:space="preserve">
<style type="text/css">
	.st0{fill:none;stroke:#18191A;stroke-width:10;stroke-miterlimit:10;}
	.st1{fill:#18191A;}
</style>
<path class="st0" d="M444.5,394.7H79.7c-7.3,0-13.2-5.9-13.2-13.2V208.4c0-7.3,5.9-13.2,13.2-13.2h364.9c7.3,0,13.2,5.9,13.2,13.2
	v173.1C457.7,388.8,451.8,394.7,444.5,394.7z"/>
<path class="st1" d="M457.7,314.9h49.4c2.1,0,3.8-1.7,3.8-3.8v-32.2c0-2.1-1.7-3.8-3.8-3.8h-49.4V314.9z"/>
<path class="st1" d="M361.3,377.9h-264c-3.2,0-5.7-3-5.7-6.6V218.6c0-3.7,2.6-6.6,5.7-6.6h264.1c3.2,0,5.7,3,5.7,6.6v152.7
	C367,374.9,364.4,377.9,361.3,377.9z"/>
</svg>
