<?xml version="1.0" encoding="utf-8"?>
<!-- Generator: Adobe Illustrator 24.0.2, SVG Export Plug-In . SVG Version: 6.00 Build 0)  -->
<svg version="1.1" id="Capa_1" xmlns="http://www.w3.org/2000/svg" xmlns:xlink="http://www.w3.org/1999/xlink" x="0px" y="0px"
	 viewBox="0 0 502.18 502.18" style="enable-background:new 0 0 502.18 502.18;" xml:space="preserve">
<g>
	<g>
		<path d="M499.85,162.3C362.8,24.9,140.31,24.6,2.9,161.65c-0.22,0.22-0.44,0.44-0.66,0.66c-3.07,3.18-2.98,8.24,0.2,11.31
			c3.1,2.99,8.02,2.99,11.11,0c130.82-131.15,343.18-131.42,474.33-0.6c0.2,0.2,0.4,0.4,0.6,0.6c3.12,3.14,8.2,3.15,11.34,0.02
			S502.97,165.44,499.85,162.3z"/>
	</g>
</g>
<g>
	<g>
		<path d="M454.62,207.53c-53.86-54.2-127.17-84.6-203.58-84.42c-76.41-0.18-149.72,30.22-203.58,84.42
			c-3.07,3.18-2.98,8.24,0.2,11.31c3.1,2.99,8.01,2.99,11.11,0c106-106.18,278.01-106.33,384.19-0.34c0.11,0.11,0.23,0.23,0.34,0.34
			c3.18,3.07,8.24,2.98,11.31-0.2C457.62,215.54,457.62,210.63,454.62,207.53z"/>
	</g>
</g>
<g>
	<g>
		<path d="M409.35,252.81c-41.86-42.19-98.87-65.85-158.3-65.7c-59.43-0.15-116.45,23.51-158.3,65.7c-3.12,3.13-3.12,8.2,0.01,11.32
			s8.19,3.12,11.32-0.01c80.93-81.17,212.34-81.37,293.51-0.44c0.15,0.15,0.29,0.29,0.44,0.44c3.12,3.13,8.19,3.13,11.32,0.01
			C412.47,261,412.47,255.94,409.35,252.81z"/>
	</g>
</g>
<g>
	<g>
		<path d="M364.14,298.01c-29.92-30.11-70.65-47-113.1-46.9c-42.45-0.1-83.18,16.79-113.1,46.9c-3.07,3.18-2.98,8.24,0.2,11.31
			c3.1,2.99,8.01,2.99,11.12,0c56.11-56.21,147.16-56.3,203.37-0.19c0.06,0.06,0.13,0.13,0.19,0.19c3.18,3.07,8.24,2.98,11.31-0.2
			C367.14,306.02,367.14,301.11,364.14,298.01z"/>
	</g>
</g>
<g>
	<g>
		<path d="M319.12,343.39c-0.06-0.07-0.13-0.13-0.2-0.19c-17.99-18.02-42.42-28.13-67.88-28.09c-25.46-0.04-49.89,10.07-67.88,28.09
			c-3.19,3.06-3.29,8.12-0.23,11.31s8.12,3.29,11.31,0.23c0.07-0.06,0.13-0.13,0.2-0.19c31.27-31.24,81.93-31.24,113.2,0
			c3.08,3.17,8.14,3.24,11.31,0.16S322.2,346.55,319.12,343.39z"/>
	</g>
</g>
<circle cx="251.05" cy="403.74" r="31.57"/>
</svg>
